<svg width="512" height="512" viewBox="0 0 512 512" fill="none" xmlns="http://www.w3.org/2000/svg">
<rect width="512" height="512" rx="50" fill="white"/>
<path d="M267.961 379.863C267.961 431.301 226.332 473 174.981 473C123.629 473 82 431.301 82 379.863C82 328.425 123.629 286.726 174.981 286.726C226.332 286.726 267.961 328.425 267.961 379.863Z" fill="black"/>
<path d="M233.453 379.863C233.453 412.211 207.274 438.434 174.981 438.434C142.687 438.434 116.508 412.211 116.508 379.863C116.508 347.515 142.687 321.292 174.981 321.292C207.274 321.292 233.453 347.515 233.453 379.863Z" fill="white"/>
<path d="M168.271 39H267.961V300.168H168.271V39Z" fill="black"/>
<path d="M204.696 77.4071H233.453V286.726H204.696V77.4071Z" fill="white"/>
<path d="M429 286.726L358.165 386.584H172.105V286.726H429Z" fill="black"/>
<path d="M355.191 321.362L333.457 350.097L172.105 350.235V321.362H355.191Z" fill="white"/>
<path d="M204.696 379.863C204.696 396.302 191.392 409.628 174.981 409.628C158.569 409.628 145.265 396.302 145.265 379.863C145.265 363.424 158.569 350.097 174.981 350.097C191.392 350.097 204.696 363.424 204.696 379.863Z" fill="black"/>
</svg>
